<?xml version="1.0" encoding="UTF-8" standalone="no"?> <svg width="512" height="512" viewBox="0 0 512 512" fill="none" xmlns="http://www.w3.org/2000/svg">
<path d="M480 232V159.9C489 158.9 496 151.3 496 142V114C496 104.1 487.9 96 478 96H432V72C432 67.6 428.4 64 424 64H416V40C416 35.6 412.4 32 408 32H400V24C400 19.6 396.4 16 392 16C387.6 16 384 19.6 384 24V32H376C371.6 32 368 35.6 368 40V64H360C355.6 64 352 67.6 352 72V96H336V72.5C336 59 325 48 311.5 48H200.5C187 48 176 59 176 72.5V96H160V72C160 67.6 156.4 64 152 64H144V40C144 35.6 140.4 32 136 32H128V24C128 19.6 124.4 16 120 16C115.6 16 112 19.6 112 24V32H104C99.6 32 96 35.6 96 40V64H88C83.6 64 80 67.6 80 72V96H34C24.1 96 16 104.1 16 114V142C16 151.2 23 158.9 32 159.9V232V360V432.1C23 433.1 16 440.7 16 450V478C16 487.9 24.1 496 34 496H478C487.9 496 496 487.9 496 478V450C496 440.8 489 433.1 480 432.1V360V232ZM384 48H400V64H384V48ZM368 80H376H408H416V96H368V80ZM192 72.5C192 67.8 195.8 64 200.5 64H311.4C316.1 64 319.9 67.8 319.9 72.5V96H192V72.5ZM112 48H128V64H112V48ZM96 80H104H136H144V96H96V80ZM480 478C480 479.1 479.1 480 478 480H34C32.9 480 32 479.1 32 478V450C32 448.9 32.9 448 34 448H40H472H478C479.1 448 480 448.9 480 450V478ZM252 307C250.5 305.1 248.2 304 245.8 304H223.6L272.2 236L259.7 294.3C259.2 296.7 259.8 299.1 261.3 301C262.8 302.9 265.1 304 267.5 304H288.5L240.6 371.1L242.7 361.8V361.7L253.5 313.9C254.1 311.4 253.5 308.9 252 307ZM310.5 300.7C312.2 298.3 312.5 295.1 311.1 292.4C309.7 289.7 307 288.1 304 288.1H277.3L287.6 240.1H336V248.1C336 252.5 339.6 256.1 344 256.1H368V280.1C368 284.5 371.6 288.1 376 288.1H408C412.4 288.1 416 284.5 416 280.1V256.1H440C444.4 256.1 448 252.5 448 248.1V240.1H464V352.1H273.8L310.5 300.7ZM408 224H432V240H408C403.6 240 400 243.6 400 248V272H384V248C384 243.6 380.4 240 376 240H352V224H376C380.4 224 384 220.4 384 216V192H400V216C400 220.4 403.6 224 408 224ZM448 224V216C448 211.6 444.4 208 440 208H416V184C416 179.6 412.4 176 408 176H376C371.6 176 368 179.6 368 184V208H344C339.6 208 336 211.6 336 216V224H291L295.8 201.7C296.6 198 294.7 194.2 291.2 192.7C287.7 191.2 283.7 192.3 281.5 195.4L261 224H176V216C176 211.6 172.4 208 168 208H72C67.6 208 64 211.6 64 216V224H48V160H464V224H448ZM160 224V240H80V224H160ZM64 240V248C64 252.4 67.6 256 72 256H168C172.4 256 176 252.4 176 248V240H249.6L201.5 307.3C199.8 309.7 199.5 312.9 200.9 315.6C202.3 318.3 205 319.9 208 319.9H235.7L228.5 351.9H48V240H64ZM224.8 368L216.2 406.2C215.4 409.9 217.3 413.7 220.7 415.3C221.8 415.8 222.9 416 224 416C226.5 416 229 414.8 230.5 412.6L262.4 367.9H464V431.9H48V367.9H224.8V368ZM478 144H472H40H34C32.9 144 32 143.1 32 142V114C32 112.9 32.9 112 34 112H478C479.1 112 480 112.9 480 114V142C480 143.1 479.1 144 478 144Z" fill="black"/>
</svg>
