<?xml version="1.0" standalone="no"?>
<!DOCTYPE svg PUBLIC "-//W3C//DTD SVG 20010904//EN"
 "http://www.w3.org/TR/2001/REC-SVG-20010904/DTD/svg10.dtd">
<svg version="1.0" xmlns="http://www.w3.org/2000/svg"
 width="512.000000pt" height="512.000000pt" viewBox="0 0 512.000000 512.000000"
 preserveAspectRatio="xMidYMid meet">

<g transform="translate(0.000000,512.000000) scale(0.100000,-0.100000)"
fill="#000000" stroke="none">
<path d="M971 4534 c-19 -24 -21 -40 -21 -155 l0 -129 -83 0 c-121 0 -127 -8
-127 -150 l0 -110 540 0 540 0 0 110 c0 142 -6 150 -127 150 l-83 0 0 129 c0
115 -2 131 -21 155 l-20 26 -289 0 -289 0 -20 -26z"/>
<path d="M3531 4534 c-19 -24 -21 -40 -21 -155 l0 -129 -83 0 c-121 0 -127 -8
-127 -150 l0 -110 540 0 540 0 0 110 c0 142 -6 150 -127 150 l-83 0 0 129 c0
115 -2 131 -21 155 l-20 26 -289 0 -289 0 -20 -26z"/>
<path d="M220 3832 c-19 -9 -45 -32 -57 -51 -22 -33 -23 -42 -23 -253 0 -243
4 -263 63 -298 31 -20 69 -20 2357 -20 2314 0 2325 0 2358 20 56 34 62 64 62
303 0 206 -1 215 -23 248 -12 19 -38 42 -57 51 -33 17 -165 18 -2340 18 -2175
0 -2307 -1 -2340 -18z"/>
<path d="M360 1826 c0 -1243 0 -1243 21 -1270 l20 -26 2159 0 2159 0 20 26
c21 27 21 27 21 1270 l0 1244 -2200 0 -2200 0 0 -1244z m2620 634 c11 -11 20
-29 20 -39 0 -11 -47 -124 -105 -251 -58 -127 -105 -233 -105 -236 0 -2 65 -4
145 -4 142 0 147 -1 170 -25 32 -31 31 -58 -2 -94 -52 -55 -928 -823 -948
-831 -31 -11 -72 8 -83 39 -8 24 3 67 73 272 45 134 85 254 89 266 7 20 4 21
-93 25 -111 3 -141 18 -141 69 0 35 334 799 357 817 13 9 91 12 310 12 280 0
294 -1 313 -20z"/>
</g>
</svg>
