<svg xmlns="http://www.w3.org/2000/svg" width="64" height="64" enable-background="new 0 0 64 64" viewBox="0 0 64 64" id="automotive-battery">
  <path fill="#010101" d="M25.369,48.399c0.163,0.107,0.346,0.158,0.529,0.158c0.258,0,0.513-0.104,0.702-0.301l12.205-12.785
		c0.268-0.281,0.343-0.695,0.19-1.051c-0.153-0.357-0.503-0.59-0.892-0.59h-2.621l2.006-4.508c0.133-0.299,0.106-0.646-0.073-0.922
		s-0.485-0.441-0.813-0.441H30.6c-0.385,0-0.733,0.227-0.888,0.58l-4.458,10.129c-0.132,0.299-0.104,0.646,0.076,0.92
		c0.179,0.273,0.484,0.439,0.812,0.439h1.825l-2.965,7.189C24.823,47.649,24.978,48.146,25.369,48.399z M27.628,38.089l3.604-8.189
		h3.876l-2.006,4.508c-0.133,0.299-0.106,0.646,0.073,0.922c0.178,0.277,0.485,0.441,0.813,0.441h1.849l-7.072,7.408l1.547-3.75
		c0.124-0.299,0.089-0.641-0.09-0.91c-0.18-0.268-0.482-0.43-0.806-0.43H27.628z"></path>
  <path fill="#010101" d="M63.03,16.327h-4.51v-2.848c0-0.535-0.435-0.969-0.97-0.969h-1.27v-0.316c0-1.535-1.25-2.783-2.785-2.783
		h-3.61c-1.535,0-2.784,1.248-2.784,2.783v0.316h-1.27c-0.536,0-0.97,0.434-0.97,0.969v2.848H19.139v-2.848
		c0-0.535-0.434-0.969-0.97-0.969h-1.27v-0.316c0-1.535-1.249-2.783-2.784-2.783h-3.61c-1.536,0-2.785,1.248-2.785,2.783v0.316H6.45
		c-0.536,0-0.97,0.434-0.97,0.969v2.848H0.97c-0.536,0-0.97,0.436-0.97,0.971v5.592c0,0.537,0.434,0.971,0.97,0.971h2.227v29.758
		c0,0.537,0.435,0.971,0.97,0.971h55.668c0.536,0,0.97-0.434,0.97-0.971V23.86h2.227c0.536,0,0.97-0.434,0.97-0.971v-5.592
		C64,16.763,63.566,16.327,63.03,16.327z M49.04,12.194c0-0.465,0.379-0.844,0.845-0.844h3.61c0.466,0,0.846,0.379,0.846,0.844
		v0.316H49.04V12.194z M46.801,14.45h9.78v1.877h-9.78V14.45z M9.659,12.194c0-0.465,0.379-0.844,0.845-0.844h3.61
		c0.466,0,0.845,0.379,0.845,0.844v0.316H9.659V12.194z M7.419,14.45h9.78v1.877h-9.78V14.45z M58.865,52.649H5.136V23.86h53.729
		V52.649z M62.061,21.921H1.939v-3.654h60.121V21.921z"></path>
</svg>
